<?xml version="1.0" encoding="UTF-8" standalone="no"?>
<!-- Created with Inkscape (http://www.inkscape.org/) -->

<svg
   version="1.1"
   id="svg1"
   width="1122.5201"
   height="793.70013"
   viewBox="0 0 1122.5201 793.70013"
   sodipodi:docname="SRA OSS_logo_cmyk_horizontal.ai"
   xmlns:inkscape="http://www.inkscape.org/namespaces/inkscape"
   xmlns:sodipodi="http://sodipodi.sourceforge.net/DTD/sodipodi-0.dtd"
   xmlns="http://www.w3.org/2000/svg"
   xmlns:svg="http://www.w3.org/2000/svg">
  <defs
     id="defs1">
    <clipPath
       clipPathUnits="userSpaceOnUse"
       id="clipPath2">
      <path
         d="M 0,612.283 H 858.898 V 0 H 0 Z"
         transform="translate(-277.19491,-349.12761)"
         id="path2" />
    </clipPath>
    <clipPath
       clipPathUnits="userSpaceOnUse"
       id="clipPath4">
      <path
         d="M 0,612.283 H 858.898 V 0 H 0 Z"
         transform="translate(-373.86681,-305.80231)"
         id="path4" />
    </clipPath>
    <clipPath
       clipPathUnits="userSpaceOnUse"
       id="clipPath6">
      <path
         d="M 0,612.283 H 858.898 V 0 H 0 Z"
         transform="translate(-577.91002,-305.80291)"
         id="path6" />
    </clipPath>
    <clipPath
       clipPathUnits="userSpaceOnUse"
       id="clipPath8">
      <path
         d="M 0,612.283 H 858.898 V 0 H 0 Z"
         transform="translate(-620.38622,-305.80231)"
         id="path8" />
    </clipPath>
    <clipPath
       clipPathUnits="userSpaceOnUse"
       id="clipPath10">
      <path
         d="M 0,612.283 H 858.898 V 0 H 0 Z"
         transform="translate(-395.85201,-307.92591)"
         id="path10" />
    </clipPath>
    <clipPath
       clipPathUnits="userSpaceOnUse"
       id="clipPath12">
      <path
         d="M 0,612.283 H 858.898 V 0 H 0 Z"
         transform="translate(-529.75021,-306.58871)"
         id="path12" />
    </clipPath>
    <clipPath
       clipPathUnits="userSpaceOnUse"
       id="clipPath14">
      <path
         d="M 0,612.283 H 858.898 V 0 H 0 Z"
         transform="translate(-455.80651,-323.26861)"
         id="path14" />
    </clipPath>
  </defs>
  <sodipodi:namedview
     id="namedview1"
     pagecolor="#ffffff"
     bordercolor="#000000"
     borderopacity="0.25"
     inkscape:showpageshadow="2"
     inkscape:pageopacity="0.0"
     inkscape:pagecheckerboard="0"
     inkscape:deskcolor="#d1d1d1">
    <inkscape:page
       x="0"
       y="0"
       inkscape:label="1"
       id="page1"
       width="1122.5201"
       height="793.70013"
       margin="278.93347 220.87866 277.68799 221.93614"
       bleed="11.33852 11.338667 11.338667 11.33852" />
  </sodipodi:namedview>
  <g
     id="layer-MC0"
     inkscape:groupmode="layer"
     inkscape:label="レイヤー 1">
    <path
       id="path1"
       d="m 0,0 c -23.482,0 -42.52,-19.037 -42.52,-42.52 0,-23.484 19.038,-42.519 42.52,-42.519 23.483,0 42.518,19.035 42.518,42.519 C 42.518,-19.037 23.483,0 0,0 m -12.025,-62.382 c -5.307,0 -10.294,2.065 -14.045,5.816 -3.751,3.754 -5.818,8.741 -5.818,14.044 0,5.306 2.067,10.294 5.819,14.046 l 12.025,12.024 4.037,-4.034 -12.027,-12.027 c -2.673,-2.672 -4.145,-6.227 -4.145,-10.009 0,-3.779 1.471,-7.331 4.143,-10.004 2.675,-2.676 6.23,-4.149 10.011,-4.149 3.781,0 7.334,1.473 10.007,4.149 l 12.026,12.025 4.037,-4.036 -12.028,-12.029 c -3.75,-3.751 -8.737,-5.816 -14.042,-5.816 m 38.094,5.816 -12.027,-12.024 -4.034,4.036 12.028,12.028 c 5.517,5.516 5.517,14.497 0,20.013 -2.675,2.674 -6.228,4.145 -10.01,4.145 -3.78,0 -7.335,-1.471 -10.009,-4.144 l -12.024,-12.025 -4.037,4.035 12.026,12.026 c 3.753,3.751 8.739,5.819 14.044,5.816 5.307,0 10.294,-2.065 14.043,-5.816 7.746,-7.744 7.746,-20.344 0,-28.09"
       style="fill:#3458b0;fill-opacity:1;fill-rule:nonzero;stroke:none"
       transform="matrix(1.3333333,0,0,-1.3333333,358.25468,339.53535)"
       clip-path="url(#clipPath2)" />
    <path
       id="path3"
       d="m 0,0 c -2.612,2.26 -5.535,3.393 -10.776,4.176 l -6.19,0.952 c -2.96,0.482 -5.645,1.563 -7.183,2.892 -1.48,1.277 -2.231,3.24 -2.231,5.834 0,5.912 4.222,9.585 11.019,9.585 h 13.885 v 7.041 h -13.647 c -11.55,0 -19.012,-6.621 -19.012,-16.867 0,-4.746 1.544,-8.526 4.597,-11.24 2.571,-2.241 6.223,-3.755 10.86,-4.503 l 6.595,-1.035 c 4.067,-0.624 5.298,-1.065 6.936,-2.488 1.564,-1.358 2.391,-3.569 2.391,-6.393 0,-5.889 -4.539,-9.449 -12.168,-9.58 h -8.419 v -7.204 h 7.982 c 12.416,0 20.44,6.649 20.44,16.941 C 5.079,-6.93 3.323,-2.819 0,0"
       style="fill:#3458b0;fill-opacity:1;fill-rule:nonzero;stroke:none"
       transform="matrix(1.3333333,0,0,-1.3333333,487.15055,397.30241)"
       clip-path="url(#clipPath4)" />
    <path
       id="path5"
       d="m 0,0 c -2.612,2.26 -5.536,3.393 -10.781,4.176 l -6.188,0.952 c -2.955,0.482 -5.639,1.562 -7.177,2.89 -1.481,1.281 -2.232,3.244 -2.232,5.835 0,5.912 4.219,9.585 11.012,9.585 h 13.889 v 7.042 h -13.648 c -11.549,0 -19.012,-6.621 -19.012,-16.868 0,-4.75 1.547,-8.53 4.603,-11.241 2.573,-2.24 6.224,-3.755 10.856,-4.502 l 6.595,-1.035 c 4.066,-0.623 5.297,-1.064 6.932,-2.488 1.566,-1.357 2.392,-3.568 2.392,-6.393 0,-5.889 -4.538,-9.449 -12.17,-9.58 h -8.411 v -7.204 h 7.974 c 12.419,0 20.445,6.65 20.445,16.942 C 5.079,-6.93 3.323,-2.819 0,0"
       style="fill:#3458b0;fill-opacity:1;fill-rule:nonzero;stroke:none"
       transform="matrix(1.3333333,0,0,-1.3333333,759.20815,397.30161)"
       clip-path="url(#clipPath6)" />
    <path
       id="path7"
       d="m 0,0 c -2.612,2.26 -5.535,3.393 -10.78,4.176 l -6.189,0.952 c -2.955,0.482 -5.64,1.563 -7.179,2.892 -1.481,1.276 -2.231,3.239 -2.231,5.834 0,5.912 4.219,9.585 11.01,9.585 h 13.895 v 7.041 h -13.651 c -11.549,0 -19.012,-6.621 -19.012,-16.867 0,-4.744 1.547,-8.524 4.603,-11.24 2.564,-2.239 6.214,-3.754 10.851,-4.503 l 6.598,-1.035 c 4.06,-0.622 5.294,-1.064 6.939,-2.488 1.54,-1.339 2.387,-3.61 2.387,-6.393 0,-5.889 -4.539,-9.449 -12.172,-9.58 h -8.413 v -7.204 h 7.975 c 12.421,0 20.447,6.649 20.447,16.941 C 5.078,-6.928 3.321,-2.817 0,0"
       style="fill:#3458b0;fill-opacity:1;fill-rule:nonzero;stroke:none"
       transform="matrix(1.3333333,0,0,-1.3333333,815.84308,397.30241)"
       clip-path="url(#clipPath8)" />
    <path
       id="path9"
       d="M 0,0 C -0.496,0 -0.9,0.404 -0.9,0.9 L -0.903,3.257 -0.9,19.783 c 0,0.492 0.401,0.894 0.888,0.897 h 10.995 c 7.051,0 11.096,-3.754 11.096,-10.3 0,-6.598 -4.045,-10.381 -11.096,-10.381 H 3.807 L 3.81,0 Z m 18.988,-6.2 c 0.061,0.176 0.221,0.332 0.404,0.419 6.687,2.633 10.523,8.523 10.523,16.161 0,10.468 -7.384,17.501 -18.375,17.501 H -8.738 v -58.355 h 7.834 L -0.9,-8.101 c 0,0.495 0.404,0.899 0.9,0.899 h 9.214 c 0.652,0 1.518,-0.529 1.816,-1.109 l 11.363,-22.167 h 9.106 L 19.048,-6.681 c -0.09,0.172 -0.11,0.334 -0.06,0.481"
       style="fill:#3458b0;fill-opacity:1;fill-rule:nonzero;stroke:none"
       transform="matrix(1.3333333,0,0,-1.3333333,516.46415,394.47095)"
       clip-path="url(#clipPath10)" />
    <path
       id="path11"
       d="m 0,0 c 0,-11.884 -0.436,-15.322 -3.717,-18.678 -2.328,-2.401 -5.655,-3.78 -9.126,-3.78 -3.471,0 -6.796,1.378 -9.126,3.783 -3.28,3.354 -3.718,6.792 -3.718,18.675 0,11.884 0.438,15.322 3.721,18.676 2.327,2.401 5.652,3.778 9.123,3.778 3.471,0 6.799,-1.377 9.129,-3.781 C -0.436,15.322 0,11.885 0,0 m -12.843,29.655 c -5.853,0 -11.073,-2.124 -15.093,-6.143 C -33.52,17.927 -33.52,11.936 -33.52,0 c 0,-11.937 0,-17.929 5.584,-23.514 4.017,-4.019 9.236,-6.142 15.093,-6.142 5.857,0 11.076,2.123 15.091,6.142 5.588,5.585 5.588,11.577 5.588,23.514 0,11.936 0,17.927 -5.588,23.512 -4.018,4.019 -9.237,6.143 -15.091,6.143"
       style="fill:#3458b0;fill-opacity:1;fill-rule:nonzero;stroke:none"
       transform="matrix(1.3333333,0,0,-1.3333333,694.99508,396.25388)"
       clip-path="url(#clipPath12)" />
    <path
       id="path13"
       d="m 0,0 c 0.04,0.112 0.105,0.112 0.144,0 0,0 16.298,-45.818 16.299,-45.821 h 8.354 L 3.321,12.537 h -6.493 l -21.48,-58.358 h 8.353 z"
       style="fill:#3458b0;fill-opacity:1;fill-rule:nonzero;stroke:none"
       transform="matrix(1.3333333,0,0,-1.3333333,596.40348,374.01401)"
       clip-path="url(#clipPath14)" />
  </g>
</svg>
